<?xml version="1.0" encoding="UTF-8"?>
<!DOCTYPE svg PUBLIC "-//W3C//DTD SVG 1.1//EN" "http://www.w3.org/Graphics/SVG/1.1/DTD/svg11.dtd">
<svg xmlns="http://www.w3.org/2000/svg" version="1.1" width="100px" height="100px" style="shape-rendering:geometricPrecision; text-rendering:geometricPrecision; image-rendering:optimizeQuality; fill-rule:evenodd; clip-rule:evenodd" xmlns:xlink="http://www.w3.org/1999/xlink">
<g><path style="opacity:0.976" fill="#ff9f00" d="M 44.5,19.5 C 31.4957,19.3334 18.4957,19.5001 5.5,20C 2.97739,21.3597 0.977392,23.193 -0.5,25.5C -0.5,21.8333 -0.5,18.1667 -0.5,14.5C 0.971672,12.8657 2.63834,11.3657 4.5,10C 14.8333,9.33333 25.1667,9.33333 35.5,10C 38.7044,13.0359 41.7044,16.2026 44.5,19.5 Z"/></g>
<g><path style="opacity:0.998" fill="#fec927" d="M 44.5,19.5 C 61.17,19.3334 77.8367,19.5001 94.5,20C 96.3617,21.3657 98.0283,22.8657 99.5,24.5C 99.5,44.5 99.5,64.5 99.5,84.5C 98.0283,86.1343 96.3617,87.6343 94.5,89C 64.5,89.6667 34.5,89.6667 4.5,89C 2.63834,87.6343 0.971672,86.1343 -0.5,84.5C -0.5,64.8333 -0.5,45.1667 -0.5,25.5C 0.977392,23.193 2.97739,21.3597 5.5,20C 18.4957,19.5001 31.4957,19.3334 44.5,19.5 Z"/></g>
<g><path style="opacity:1" fill="#fafbfc" d="M 32.5,30.5 C 39.5,30.5 46.5,30.5 53.5,30.5C 53.5,34.8333 53.5,39.1667 53.5,43.5C 57.6344,44.4849 61.9677,44.8182 66.5,44.5C 66.5,48.5 66.5,52.5 66.5,56.5C 65.1667,56.5 63.8333,56.5 62.5,56.5C 62.5,55.5 62.5,54.5 62.5,53.5C 53.8333,53.5 45.1667,53.5 36.5,53.5C 36.5,54.5 36.5,55.5 36.5,56.5C 35.1667,56.5 33.8333,56.5 32.5,56.5C 32.5,47.8333 32.5,39.1667 32.5,30.5 Z"/></g>
<g><path style="opacity:1" fill="#90a2a7" d="M 31.5,30.5 C 38.9887,29.3443 46.6554,29.1777 54.5,30C 55.056,30.3826 55.3893,30.8826 55.5,31.5C 60.5,34.5 64.5,38.5 67.5,43.5C 62.8333,43.5 58.1667,43.5 53.5,43.5C 53.5,39.1667 53.5,34.8333 53.5,30.5C 46.5,30.5 39.5,30.5 32.5,30.5C 32.1667,30.5 31.8333,30.5 31.5,30.5 Z"/></g>
<g><path style="opacity:1" fill="#dee5e9" d="M 55.5,31.5 C 57.8926,35.4023 60.8926,38.9023 64.5,42C 61.1832,42.4983 57.8499,42.665 54.5,42.5C 54.185,38.6286 54.5184,34.9619 55.5,31.5 Z"/></g>
<g><path style="opacity:1" fill="#b3c4cd" d="M 31.5,30.5 C 31.8333,30.5 32.1667,30.5 32.5,30.5C 32.5,39.1667 32.5,47.8333 32.5,56.5C 32.5,63.1667 32.5,69.8333 32.5,76.5C 43.8333,76.5 55.1667,76.5 66.5,76.5C 66.5,69.8333 66.5,63.1667 66.5,56.5C 66.5,52.5 66.5,48.5 66.5,44.5C 61.9677,44.8182 57.6344,44.4849 53.5,43.5C 58.1667,43.5 62.8333,43.5 67.5,43.5C 67.5,55.5 67.5,67.5 67.5,79.5C 55.5,79.5 43.5,79.5 31.5,79.5C 31.5,63.1667 31.5,46.8333 31.5,30.5 Z"/></g>
<g><path style="opacity:1" fill="#dee6ea" d="M 32.5,56.5 C 33.8333,56.5 35.1667,56.5 36.5,56.5C 45.1667,57.8333 53.8333,57.8333 62.5,56.5C 63.8333,56.5 65.1667,56.5 66.5,56.5C 66.5,63.1667 66.5,69.8333 66.5,76.5C 55.1667,76.5 43.8333,76.5 32.5,76.5C 32.5,69.8333 32.5,63.1667 32.5,56.5 Z"/></g>
<g><path style="opacity:1" fill="#bababa" d="M 36.5,68.5 C 41.5,68.5 46.5,68.5 51.5,68.5C 51.5,69.8333 51.5,71.1667 51.5,72.5C 46.5,72.5 41.5,72.5 36.5,72.5C 36.5,71.1667 36.5,69.8333 36.5,68.5 Z"/></g>
<g><path style="opacity:1" fill="#bdbdbd" d="M 36.5,61.5 C 45.1667,61.5 53.8333,61.5 62.5,61.5C 62.5,62.8333 62.5,64.1667 62.5,65.5C 53.8333,65.5 45.1667,65.5 36.5,65.5C 36.5,64.1667 36.5,62.8333 36.5,61.5 Z"/></g>
<g><path style="opacity:1" fill="#bebebe" d="M 62.5,56.5 C 53.8333,57.8333 45.1667,57.8333 36.5,56.5C 36.5,55.5 36.5,54.5 36.5,53.5C 45.1667,53.5 53.8333,53.5 62.5,53.5C 62.5,54.5 62.5,55.5 62.5,56.5 Z"/></g>
<g><path style="opacity:1" fill="#bababa" d="M 36.5,46.5 C 45.1667,46.5 53.8333,46.5 62.5,46.5C 62.5,47.8333 62.5,49.1667 62.5,50.5C 53.8333,50.5 45.1667,50.5 36.5,50.5C 36.5,49.1667 36.5,47.8333 36.5,46.5 Z"/></g>
</svg>
