<?xml version="1.0" encoding="UTF-8"?>
<!DOCTYPE svg PUBLIC "-//W3C//DTD SVG 1.1//EN" "http://www.w3.org/Graphics/SVG/1.1/DTD/svg11.dtd">
<svg xmlns="http://www.w3.org/2000/svg" version="1.1" width="100px" height="100px" style="shape-rendering:geometricPrecision; text-rendering:geometricPrecision; image-rendering:optimizeQuality; fill-rule:evenodd; clip-rule:evenodd" xmlns:xlink="http://www.w3.org/1999/xlink">
<g><path style="opacity:0.976" fill="#ff9f00" d="M 44.5,19.5 C 31.4957,19.3334 18.4957,19.5001 5.5,20C 2.97739,21.3597 0.977392,23.193 -0.5,25.5C -0.5,21.8333 -0.5,18.1667 -0.5,14.5C 0.971672,12.8657 2.63834,11.3657 4.5,10C 14.8333,9.33333 25.1667,9.33333 35.5,10C 38.7044,13.0359 41.7044,16.2026 44.5,19.5 Z"/></g>
<g><path style="opacity:0.998" fill="#ffc927" d="M 44.5,19.5 C 61.17,19.3334 77.8367,19.5001 94.5,20C 96.3617,21.3657 98.0283,22.8657 99.5,24.5C 99.5,44.5 99.5,64.5 99.5,84.5C 98.0283,86.1343 96.3617,87.6343 94.5,89C 64.5,89.6667 34.5,89.6667 4.5,89C 2.63834,87.6343 0.971672,86.1343 -0.5,84.5C -0.5,64.8333 -0.5,45.1667 -0.5,25.5C 0.977392,23.193 2.97739,21.3597 5.5,20C 18.4957,19.5001 31.4957,19.3334 44.5,19.5 Z"/></g>
<g><path style="opacity:1" fill="#04b3ee" d="M 43.5,30.5 C 66.4497,29.9469 75.9497,40.9469 72,63.5C 65.3065,76.5913 54.8065,81.0913 40.5,77C 27.4087,70.3065 22.9087,59.8065 27,45.5C 30.1901,37.8428 35.6901,32.8428 43.5,30.5 Z"/></g>
<g><path style="opacity:1" fill="#feca27" d="M 46.5,35.5 C 47.4614,37.2646 47.7947,39.2646 47.5,41.5C 46.0222,41.762 44.6888,41.4287 43.5,40.5C 44.2599,38.6396 45.2599,36.973 46.5,35.5 Z"/></g>
<g><path style="opacity:1" fill="#feca27" d="M 51.5,35.5 C 56.1227,38.4567 56.1227,40.4567 51.5,41.5C 51.5,39.5 51.5,37.5 51.5,35.5 Z"/></g>
<g><path style="opacity:1" fill="#feca27" d="M 38.5,37.5 C 39.6527,38.3132 39.6527,39.3132 38.5,40.5C 37.635,41.5827 36.635,41.7494 35.5,41C 36.7101,39.9609 37.7101,38.7942 38.5,37.5 Z"/></g>
<g><path style="opacity:1" fill="#feca28" d="M 59.5,37.5 C 60.9616,38.4577 62.2949,39.6244 63.5,41C 60.5096,41.8469 59.1762,40.6802 59.5,37.5 Z"/></g>
<g><path style="opacity:1" fill="#ffca28" d="M 31.5,45.5 C 33.604,45.2011 35.604,45.5344 37.5,46.5C 36.6518,48.4086 36.3184,50.4086 36.5,52.5C 34.1432,52.6633 31.8098,52.4966 29.5,52C 30.3972,49.9129 31.0639,47.7463 31.5,45.5 Z"/></g>
<g><path style="opacity:1" fill="#feca27" d="M 41.5,45.5 C 43.5,45.5 45.5,45.5 47.5,45.5C 47.5,47.8333 47.5,50.1667 47.5,52.5C 45.1667,52.5 42.8333,52.5 40.5,52.5C 40.9926,50.1944 41.3259,47.861 41.5,45.5 Z"/></g>
<g><path style="opacity:1" fill="#ffca28" d="M 51.5,45.5 C 53.5,45.5 55.5,45.5 57.5,45.5C 57.9926,47.8056 58.3259,50.139 58.5,52.5C 56.1667,52.5 53.8333,52.5 51.5,52.5C 51.5,50.1667 51.5,47.8333 51.5,45.5 Z"/></g>
<g><path style="opacity:1" fill="#feca27" d="M 61.5,45.5 C 63.604,45.2011 65.604,45.5344 67.5,46.5C 68.0933,48.3817 68.7599,50.2151 69.5,52C 67.1902,52.4966 64.8568,52.6633 62.5,52.5C 62.552,50.0971 62.2186,47.7638 61.5,45.5 Z"/></g>
<g><path style="opacity:1" fill="#feca27" d="M 29.5,57.5 C 31.6074,56.5318 33.9407,56.1984 36.5,56.5C 36.3184,58.5914 36.6518,60.5914 37.5,62.5C 35.5,63.8333 33.5,63.8333 31.5,62.5C 30.9724,60.6639 30.3058,58.9972 29.5,57.5 Z"/></g>
<g><path style="opacity:1" fill="#feca27" d="M 40.5,56.5 C 42.8333,56.5 45.1667,56.5 47.5,56.5C 47.5,58.8333 47.5,61.1667 47.5,63.5C 45.5,63.5 43.5,63.5 41.5,63.5C 41.3259,61.139 40.9926,58.8056 40.5,56.5 Z"/></g>
<g><path style="opacity:1" fill="#feca27" d="M 51.5,56.5 C 53.8333,56.5 56.1667,56.5 58.5,56.5C 58.0074,58.8056 57.6741,61.139 57.5,63.5C 55.5,63.5 53.5,63.5 51.5,63.5C 51.5,61.1667 51.5,58.8333 51.5,56.5 Z"/></g>
<g><path style="opacity:1" fill="#feca27" d="M 62.5,56.5 C 64.8568,56.3367 67.1902,56.5034 69.5,57C 68.7599,58.7849 68.0933,60.6183 67.5,62.5C 65.5,63.8333 63.5,63.8333 61.5,62.5C 62.3482,60.5914 62.6816,58.5914 62.5,56.5 Z"/></g>
<g><path style="opacity:1" fill="#feca27" d="M 35.5,68.5 C 36.3864,67.2241 37.3864,67.2241 38.5,68.5C 39.3256,69.451 39.4922,70.451 39,71.5C 37.9609,70.2899 36.7942,69.2899 35.5,68.5 Z"/></g>
<g><path style="opacity:1" fill="#feca27" d="M 43.5,67.5 C 44.8333,67.5 46.1667,67.5 47.5,67.5C 47.5496,74.9689 46.2162,74.9689 43.5,67.5 Z"/></g>
<g><path style="opacity:1" fill="#feca27" d="M 51.5,67.5 C 56.1234,68.2338 56.29,70.2338 52,73.5C 51.5045,71.5273 51.3379,69.5273 51.5,67.5 Z"/></g>
<g><path style="opacity:1" fill="#feca27" d="M 60.5,67.5 C 61.552,67.3505 62.552,67.5172 63.5,68C 60.2093,72.5815 59.2093,72.4148 60.5,67.5 Z"/></g>
</svg>
